<svg height="512pt" viewBox="-68 0 512 512" width="512pt" xmlns="http://www.w3.org/2000/svg"><path d="m187.734375 76.800781c-4.710937 0-8.535156-3.824219-8.535156-8.535156v-59.730469c0-4.710937 3.824219-8.535156 8.535156-8.535156s8.53125 3.824219 8.53125 8.535156v59.730469c0 4.710937-3.820313 8.535156-8.53125 8.535156zm0 0"/><path d="m187.734375 298.667969c-4.710937 0-8.535156-3.824219-8.535156-8.535157v-68.265624c0-4.710938 3.824219-8.535157 8.535156-8.535157s8.53125 3.824219 8.53125 8.535157v68.265624c0 4.710938-3.820313 8.535157-8.53125 8.535157zm0 0"/><path d="m187.734375 512c-4.710937 0-8.535156-3.824219-8.535156-8.535156v-59.730469c0-4.710937 3.824219-8.535156 8.535156-8.535156s8.53125 3.824219 8.53125 8.535156v59.730469c0 4.710937-3.820313 8.535156-8.53125 8.535156zm0 0"/><path d="m281.601562 230.398438h-187.734374c-4.710938 0-8.535157-3.820313-8.535157-8.53125v-153.601563c0-4.710937 3.824219-8.53125 8.535157-8.53125h187.734374c4.707032 0 8.53125 3.820313 8.53125 8.53125v153.601563c0 4.710937-3.824218 8.53125-8.53125 8.53125zm-179.203124-17.066407h170.667968v-136.53125h-170.667968zm0 0"/><path d="m366.933594 452.265625h-358.398438c-4.710937 0-8.535156-3.820313-8.535156-8.53125v-153.601563c0-4.710937 3.824219-8.53125 8.535156-8.53125h358.398438c4.710937 0 8.53125 3.820313 8.53125 8.53125v153.601563c0 4.710937-3.820313 8.53125-8.53125 8.53125zm-349.867188-17.066406h341.332032v-136.53125h-341.332032zm0 0"/></svg>