<svg height="512pt" viewBox="0 -68 512 512" width="512pt" xmlns="http://www.w3.org/2000/svg"><path d="m503.464844 196.265625h-51.199219c-4.710937 0-8.53125-3.820313-8.53125-8.53125s3.820313-8.535156 8.53125-8.535156h51.199219c4.710937 0 8.535156 3.824219 8.535156 8.535156s-3.824219 8.53125-8.535156 8.53125zm0 0"/><path d="m290.132812 196.265625h-68.265624c-4.710938 0-8.535157-3.820313-8.535157-8.53125s3.824219-8.535156 8.535157-8.535156h68.265624c4.710938 0 8.535157 3.824219 8.535157 8.535156s-3.824219 8.53125-8.535157 8.53125zm0 0"/><path d="m59.734375 196.265625h-51.199219c-4.710937 0-8.535156-3.820313-8.535156-8.53125s3.824219-8.535156 8.535156-8.535156h51.199219c4.710937 0 8.53125 3.824219 8.53125 8.535156s-3.820313 8.53125-8.53125 8.53125zm0 0"/><path d="m452.265625 290.132812h-162.132813c-4.710937 0-8.53125-3.824218-8.53125-8.53125v-187.734374c0-4.710938 3.820313-8.535157 8.53125-8.535157h162.132813c4.710937 0 8.535156 3.824219 8.535156 8.535157v187.734374c0 4.707032-3.824219 8.53125-8.535156 8.53125zm-153.597656-17.066406h145.066406v-170.667968h-145.066406zm0 0"/><path d="m221.867188 375.464844h-162.132813c-4.710937 0-8.535156-3.820313-8.535156-8.53125v-358.398438c0-4.710937 3.824219-8.535156 8.535156-8.535156h162.132813c4.710937 0 8.53125 3.824219 8.53125 8.535156v358.398438c0 4.710937-3.820313 8.53125-8.53125 8.53125zm-153.601563-17.066406h145.066406v-341.332032h-145.066406zm0 0"/></svg>